<svg width="18" height="18" viewBox="0 0 18 18" fill="none" xmlns="http://www.w3.org/2000/svg">
<circle cx="9" cy="9" r="8.5" stroke="#3771C8"/>
<path d="M8.39808 14V7.7H9.63408V14H8.39808ZM8.99808 6.308C8.73408 6.308 8.53008 6.24 8.38608 6.104C8.24208 5.968 8.17008 5.776 8.17008 5.528C8.17008 5.296 8.24208 5.108 8.38608 4.964C8.53808 4.82 8.74208 4.748 8.99808 4.748C9.26208 4.748 9.46608 4.816 9.61008 4.952C9.75408 5.088 9.82608 5.28 9.82608 5.528C9.82608 5.76 9.75008 5.948 9.59808 6.092C9.45408 6.236 9.25408 6.308 8.99808 6.308Z" fill="#3771C8"/>
</svg>
